PathFileType	4	(X/Y/Z)	C:\Users\°ÂÌØÂü\Desktop\20210112\bx_n_0_1801-Unnamed.trc
DataRate	CameraRate	NumFrames	NumMarkers	Units	OrigDataRate	OrigDataStartFrame	OrigNumFrames
50.00	50.00	       6	0	mm	50.00	149	       397
Frame#	Time	
		

149	2.960	-556.87347	-74.22089	1333.03479	-764.25824	233.70857	916.96130	-796.39746	285.09479	773.05243	-584.34979	44.32610	558.25897	-653.15051	237.01645	779.57233	-696.77997	285.27124	677.34064	-956.46283	91.83801	963.96423				-571.95245	-16.30363	487.20389	-606.37012	265.98923	544.95612	-553.62354	223.73340	500.80914	-658.19800	269.70682	483.15140	-707.66980	66.63446	213.44568	-651.20056	-72.21487	157.99643	-701.04083	154.48033	211.32347	-757.13879	228.48204	206.89156	-609.65302	-79.61662	154.58859	-882.58368	295.99481	144.60661	-672.21869	51.39170	162.43672	-599.34442	19.10387	174.23680	-554.43945	-39.30692	168.07710	-588.80066	216.03207	178.46231	-654.55792	294.28360	153.73137	-618.49323	303.24738	156.75891	-553.73065	252.53934	165.97366	-528.11072	304.29047	146.63930	-475.07910	109.16407	1623.06201	-574.49689	280.00668	1340.41919	-517.84668	-72.83995	143.21233	-790.28589	41.28764	177.23605	-790.87225	177.22012	188.54678				-678.41077	-63.51427	473.08865	-752.43500	-20.26819	207.69849	-875.97125	-78.75660	141.50529	-581.93811	98.42120	1126.15662	-562.10632	163.88789	558.10919	-673.56964	169.44904	159.60837	-782.50940	-88.96863	790.67249	-763.98431	-8.04950	907.30573	-666.84094	-33.65100	788.32098	-616.72772	-63.79043	540.51251	-713.80688	-86.66398	695.15497	-626.48920	-64.30981	583.07678	
150	2.980	-553.72186	-73.50359	1322.03357	-766.73846	234.19380	909.93243	-797.92181	285.76025	768.72369	-582.14551	45.13657	556.91388	-654.43982	237.34140	777.22845	-696.46283	285.89850	674.61652	-959.32068	92.36951	957.15228				-569.42029	-15.57577	485.96777	-604.41974	266.82919	543.65137	-551.57001	224.70393	499.97345	-656.39349	270.08942	481.86038	-707.34583	67.04068	213.45422	-650.84796	-71.67460	158.13148	-700.05798	153.43674	211.80469	-756.31201	227.93651	206.28894	-609.54706	-79.44369	154.97729	-882.45599	296.12973	144.75371	-672.09857	51.53350	161.95613	-599.17841	19.46101	173.67009	-554.13403	-39.08191	168.57906	-588.82825	215.97511	178.49113	-654.54785	294.33475	153.70416	-618.49933	303.31766	156.77719	-553.83521	252.66637	165.99857	-528.29987	304.19962	146.43954	-470.97769	109.20728	1611.72632	-571.36456	280.43594	1329.92627	-517.87280	-72.72388	143.07814	-790.06531	41.71556	177.46144	-790.68671	177.00589	188.66653				-675.60120	-62.95982	472.09979	-752.04706	-19.85750	207.98193	-876.01624	-78.73471	141.48239	-581.11572	99.31390	1115.49133	-559.32111	163.52341	557.55853	-673.60046	169.33162	159.55090	-783.80048	-88.72454	786.09344	-765.98425	-8.14387	900.37140	-668.40631	-32.42097	785.87012	-613.75830	-62.49916	539.04083	-712.52136	-85.80769	691.82855	-623.45135	-63.05328	581.04346	
151	3.000	-550.36340	-72.64164	1311.40259	-769.14935	235.09198	903.23328	-799.78546	286.29074	763.55817	-579.84186	46.71688	556.33160	-656.41656	237.96481	774.81763	-696.31055	286.27722	671.53076	-961.78003	93.18839	950.80811				-567.16272	-14.61906	484.74969	-602.02209	267.47556	542.53070	-549.29132	225.19572	498.50580	-654.23199	270.62915	481.35101	-706.89880	67.46870	213.32451	-650.47333	-71.52661	158.48247	-699.77161	153.46127	211.59630	-756.24194	227.38985	206.05446	-609.51385	-79.57526	155.01160	-882.39288	296.14465	144.73088	-672.09949	51.96690	160.66475	-599.12817	19.78649	173.25681	-553.82660	-38.96280	168.73425	-588.79279	215.83583	178.33414	-654.64447	294.38962	153.68484	-618.64032	303.38486	156.78461	-553.72705	252.66283	165.91042	-528.11023	304.21655	146.67133	-467.09732	109.56223	1600.32458	-568.57056	280.76566	1318.84998	-517.84863	-72.64709	143.16245	-789.56110	41.89544	177.48318	-790.75977	176.38390	188.73972				-672.76605	-62.36299	471.55679	-751.46442	-19.47741	208.15590	-875.99792	-78.69180	141.55168	-580.48737	99.97153	1104.98511	-557.24615	164.22446	557.22211	-674.03107	168.81380	159.12093	-784.47424	-88.17239	781.73315	-768.20593	-7.49248	892.98621	-669.60742	-30.91104	783.35291	-610.61334	-61.89849	538.03857	-712.26764	-85.20565	689.05701	-620.88428	-61.86919	579.62067	
152	3.020	-547.56793	-71.89854	1300.57593	-770.94836	235.25510	895.51794	-801.48145	286.11014	757.91998	-577.58691	48.27494	555.63464	-658.08203	238.35478	771.95087	-696.59058	286.76428	667.96149	-963.07306	92.73811	944.45398				-564.71387	-13.39894	483.02679	-600.02472	268.46536	540.84125	-546.71350	225.79152	497.87427	-652.04346	271.03775	479.83057	-706.12494	68.00684	212.95920	-650.34698	-71.26334	158.83736	-699.68427	153.48892	211.05843	-755.82806	227.48825	206.48820	-609.49414	-79.04300	155.81487	-882.49933	296.12988	144.71005	-671.86591	52.31349	160.31366	-598.64215	19.94315	172.45010	-553.51031	-38.52620	169.09576	-588.85663	215.93941	178.25305	-654.65442	294.30618	153.75153	-618.69781	303.51956	156.59035	-553.65265	252.75247	165.88094	-528.17377	303.96555	146.50659	-463.42096	109.89748	1588.93713	-565.36859	280.88391	1307.71338	-517.87280	-72.72388	143.07814	-789.42181	42.16783	177.72710	-790.59845	176.35951	188.76254				-670.18518	-61.56992	470.96356	-750.91211	-19.03187	207.86122	-876.07831	-78.80435	141.53267	-580.11133	100.44856	1094.14246	-555.19086	165.36519	555.81226	-674.08948	168.52731	158.95892	-785.50305	-86.92295	776.72467	-770.40277	-6.49949	885.23389	-670.69934	-29.38499	780.36469	-607.25708	-60.57622	536.70007	-711.37646	-84.31732	686.12878	-618.63428	-60.71059	578.49829	
153	3.040	-544.57520	-71.30574	1289.24756	-773.18097	235.72975	887.91168	-803.23907	286.67923	752.71625	-575.42529	50.37444	555.27820	-659.75793	239.08975	769.23889	-696.50952	287.86972	664.55847	-965.49695	93.44241	937.87738				-562.10059	-11.56485	482.39310	-597.30646	269.31262	540.28613	-544.46240	226.11729	496.76273	-650.18097	271.47577	478.87927	-705.73999	68.51856	212.41084	-650.34497	-70.91739	158.94450	-699.63184	153.54747	209.96732	-755.75562	227.20490	206.33240	-609.49054	-78.85237	156.50194	-882.55072	296.24280	144.74985	-671.37903	52.66373	160.10182	-598.57001	20.39205	172.13339	-553.51868	-38.24817	169.17616	-588.68665	215.86176	178.18010	-654.65442	294.30618	153.75153	-618.83203	303.45511	156.53119	-553.39294	252.74586	165.85231	-528.12842	304.09985	146.68736	-459.91992	110.40913	1577.59985	-562.38251	281.88168	1297.49194	-517.91669	-72.97008	143.18219	-789.38257	42.34609	177.87062	-790.29999	175.83652	188.76753				-667.63928	-60.41399	470.19641	-749.67828	-18.52965	208.23547	-875.93073	-78.79627	141.25227	-579.35394	101.12952	1083.47083	-552.62494	165.38097	554.89160	-672.32776	168.38298	159.23285	-786.65027	-86.16919	772.22375				-672.32495	-27.79710	777.88007	-604.68756	-59.23003	536.17456	-710.83228	-82.94284	682.92004	-616.00848	-59.26028	576.95306	
154	3.060	-541.39911	-70.38378	1278.67505	-775.20972	235.93633	880.78143	-804.97083	286.98840	747.58777	-573.72363	51.88083	553.72552	-661.18512	239.46880	766.62781	-696.25378	288.37131	661.56177	-967.82288	94.67761	930.81067				-559.87115	-9.20199	481.42593	-594.68195	270.87729	539.23883	-542.42084	226.38716	495.55219	-647.86469	271.94482	477.61911	-705.26678	69.08356	211.49538	-649.84479	-70.70869	159.69716	-698.51196	153.21925	210.03706	-755.67639	227.00568	206.49055	-609.68054	-78.78913	157.07997	-882.50006	296.18253	144.69447	-671.39056	52.74546	160.04260	-598.29449	20.99756	171.40390	-553.42651	-37.92247	169.41763	-588.43634	215.79301	177.94521	-654.61340	294.19702	153.81157	-618.76422	303.55875	156.62671	-553.25726	252.68263	165.95142	-528.14520	304.10596	146.58832	-456.54089	110.74739	1566.27747	-559.84271	282.32407	1286.55127	-517.84668	-72.83995	143.21233	-789.25653	43.14820	177.69392	-789.83044	175.26534	188.70833				-665.45874	-59.11340	469.82611	-749.99359	-17.99500	208.15414	-875.99792	-78.69180	141.55168	-578.32861	101.83355	1073.31177	-550.87988	165.53932	553.91083	-673.13318	168.73636	158.62738	-787.94720	-85.42795	767.57373				-674.16760	-25.96851	775.40363	-601.91595	-57.35130	534.55817	-710.62817	-82.22270	680.50854	-613.64886	-57.65425	575.31921	
